<?xml version="1.0" encoding="utf-8"?>
<svg viewBox="102.041 65.014 283.674 47.231" xmlns="http://www.w3.org/2000/svg">
  <g>
    <path class="st0" d="M 109.889 75.831 L 109.885 94.68 C 109.884 96.062 111.117 97.193 112.624 97.193 L 142.765 97.193 C 144.272 97.193 145.505 96.062 145.506 94.68 L 145.51 75.831 C 145.511 74.449 144.278 73.318 142.771 73.318 L 112.63 73.318 C 111.123 73.318 109.89 74.449 109.889 75.831 Z" style="stroke-linecap: round; stroke-linejoin: round; stroke-miterlimit: 10; stroke-width: 2px; fill: rgb(85, 160, 218); fill-rule: nonzero; stroke: rgb(255, 255, 255);" transform="matrix(1, -0.000267, 0.000267, 1, -0.022759, 0.034098)"/>
    <line class="st0" x1="109.887" y1="92.166" x2="145.508" y2="92.166" style="stroke-linecap: round; stroke-linejoin: round; stroke-miterlimit: 10; stroke-width: 2px; fill: rgb(85, 160, 218); fill-rule: nonzero; stroke: rgb(255, 255, 255);" transform="matrix(1, -0.000267, 0.000267, 1, -0.024604, 0.034099)"/>
    <line class="st0" x1="118.107" y1="104.732" x2="137.288" y2="104.732" style="stroke-linecap: round; stroke-linejoin: round; stroke-miterlimit: 10; stroke-width: 2px; fill-rule: nonzero; fill: rgb(255, 255, 255); stroke: rgb(255, 255, 255);" transform="matrix(1, -0.000267, 0.000267, 1, -0.027959, 0.034099)"/>
    <path class="st0" d="M 123.587 97.195 C 123.587 99.833 122.628 102.975 121.12 104.734" style="stroke-linecap: round; stroke-linejoin: round; stroke-miterlimit: 10; stroke-width: 2px; fill: rgb(85, 160, 218); fill-rule: nonzero; stroke: rgb(255, 255, 255);" transform="matrix(1, -0.000267, 0.000267, 1, -0.026953, 0.032672)"/>
    <path class="st0" d="M 134.273 104.731 C 132.767 102.972 131.808 99.83 131.808 97.192" style="stroke-linecap: round; stroke-linejoin: round; stroke-miterlimit: 10; stroke-width: 2px; fill-rule: nonzero; fill: rgb(255, 255, 255); stroke: rgb(255, 255, 255);" transform="matrix(1, -0.000267, 0.000267, 1, -0.026952, 0.035525)"/>
    <polyline class="st0" points="115.367 79.604 119.477 83.373 115.366 87.143" style="stroke-linecap: round; stroke-linejoin: round; stroke-miterlimit: 10; stroke-width: 2px; fill: rgb(85, 160, 218); fill-rule: nonzero; stroke: rgb(255, 255, 255);" transform="matrix(1, -0.000267, 0.000267, 1, -0.022257, 0.031355)"/>
    <line class="st0" x1="123.587" y1="87.14" x2="129.068" y2="87.14" style="stroke-linecap: round; stroke-linejoin: round; stroke-miterlimit: 10; stroke-width: 2px; fill: rgb(85, 160, 218); fill-rule: nonzero; stroke: rgb(255, 255, 255);" transform="matrix(1, -0.000267, 0.000267, 1, -0.023262, 0.033733)"/>
    <text id="text-1" class="cls-3" transform="matrix(0.969245, -0.000259, 0, 1, -430.478699, 4.844078)" style="white-space: pre; fill: rgb(255, 255, 255); font-family: Inter; font-size: 30px; font-weight: 700; line-height: 51.9968px; perspective-origin: 32.5px 0px;" x="611.034" y="93.808">James Stubbs</text>
  </g>
</svg>